<svg width="50" height="21" viewBox="0 0 50 21" fill="none" xmlns="http://www.w3.org/2000/svg">
<g clip-path="url(#clip0_221_6)">
<path d="M5.346 3.256V3.616C4.938 3.628 4.626 3.676 4.41 3.76C4.206 3.832 4.068 3.976 3.996 4.192C3.924 4.396 3.888 4.72 3.888 5.164V14.092C3.888 14.524 3.924 14.848 3.996 15.064C4.068 15.28 4.206 15.424 4.41 15.496C4.626 15.568 4.938 15.616 5.346 15.64V16C5.07 15.976 4.722 15.964 4.302 15.964C3.894 15.952 3.48 15.946 3.06 15.946C2.592 15.946 2.154 15.952 1.746 15.964C1.338 15.964 1.008 15.976 0.756 16V15.64C1.164 15.616 1.47 15.568 1.674 15.496C1.89 15.424 2.034 15.28 2.106 15.064C2.178 14.848 2.214 14.524 2.214 14.092V5.164C2.214 4.72 2.178 4.396 2.106 4.192C2.034 3.976 1.89 3.832 1.674 3.76C1.47 3.676 1.164 3.628 0.756 3.616V3.256C1.008 3.268 1.338 3.28 1.746 3.292C2.154 3.304 2.592 3.31 3.06 3.31C3.48 3.31 3.894 3.304 4.302 3.292C4.722 3.28 5.07 3.268 5.346 3.256ZM12.6696 6.478C13.1256 6.478 13.5036 6.538 13.8036 6.658C14.1156 6.778 14.3736 6.946 14.5776 7.162C14.8056 7.402 14.9676 7.702 15.0636 8.062C15.1596 8.422 15.2076 8.908 15.2076 9.52V14.326C15.2076 14.83 15.3096 15.172 15.5136 15.352C15.7296 15.532 16.0836 15.622 16.5756 15.622V16C16.3716 15.988 16.0596 15.976 15.6396 15.964C15.2196 15.94 14.8116 15.928 14.4156 15.928C14.0196 15.928 13.6296 15.94 13.2456 15.964C12.8736 15.976 12.5916 15.988 12.3996 16V15.622C12.8316 15.622 13.1376 15.532 13.3176 15.352C13.4976 15.172 13.5876 14.83 13.5876 14.326V9.124C13.5876 8.752 13.5576 8.41 13.4976 8.098C13.4376 7.786 13.2996 7.534 13.0836 7.342C12.8796 7.15 12.5616 7.054 12.1296 7.054C11.6256 7.054 11.1816 7.198 10.7976 7.486C10.4256 7.774 10.1316 8.17 9.91561 8.674C9.71161 9.166 9.60961 9.718 9.60961 10.33V14.326C9.60961 14.83 9.69961 15.172 9.87961 15.352C10.0596 15.532 10.3656 15.622 10.7976 15.622V16C10.6056 15.988 10.3176 15.976 9.93361 15.964C9.56161 15.94 9.17761 15.928 8.78161 15.928C8.38561 15.928 7.97761 15.94 7.55761 15.964C7.13761 15.976 6.82561 15.988 6.62161 16V15.622C7.11361 15.622 7.46161 15.532 7.66561 15.352C7.88161 15.172 7.98961 14.83 7.98961 14.326V8.692C7.98961 8.152 7.89361 7.756 7.70161 7.504C7.50961 7.24 7.14961 7.108 6.62161 7.108V6.73C7.00561 6.766 7.37761 6.784 7.73761 6.784C8.08561 6.784 8.41561 6.766 8.72761 6.73C9.05161 6.682 9.34561 6.616 9.60961 6.532V8.656C9.92161 7.84 10.3536 7.276 10.9056 6.964C11.4696 6.64 12.0576 6.478 12.6696 6.478ZM23.4098 6.478C23.8658 6.478 24.2438 6.538 24.5438 6.658C24.8558 6.778 25.1138 6.946 25.3178 7.162C25.5458 7.402 25.7078 7.702 25.8038 8.062C25.8998 8.422 25.9478 8.908 25.9478 9.52V14.326C25.9478 14.83 26.0498 15.172 26.2538 15.352C26.4698 15.532 26.8238 15.622 27.3158 15.622V16C27.1118 15.988 26.7998 15.976 26.3798 15.964C25.9598 15.94 25.5518 15.928 25.1558 15.928C24.7598 15.928 24.3698 15.94 23.9858 15.964C23.6138 15.976 23.3318 15.988 23.1398 16V15.622C23.5718 15.622 23.8778 15.532 24.0578 15.352C24.2378 15.172 24.3278 14.83 24.3278 14.326V9.124C24.3278 8.752 24.2978 8.41 24.2378 8.098C24.1778 7.786 24.0398 7.534 23.8238 7.342C23.6198 7.15 23.3018 7.054 22.8698 7.054C22.3658 7.054 21.9218 7.198 21.5378 7.486C21.1658 7.774 20.8718 8.17 20.6558 8.674C20.4518 9.166 20.3498 9.718 20.3498 10.33V14.326C20.3498 14.83 20.4398 15.172 20.6198 15.352C20.7998 15.532 21.1058 15.622 21.5378 15.622V16C21.3458 15.988 21.0578 15.976 20.6738 15.964C20.3018 15.94 19.9178 15.928 19.5218 15.928C19.1258 15.928 18.7178 15.94 18.2978 15.964C17.8778 15.976 17.5658 15.988 17.3618 16V15.622C17.8538 15.622 18.2018 15.532 18.4058 15.352C18.6218 15.172 18.7298 14.83 18.7298 14.326V8.692C18.7298 8.152 18.6338 7.756 18.4418 7.504C18.2498 7.24 17.8898 7.108 17.3618 7.108V6.73C17.7458 6.766 18.1178 6.784 18.4778 6.784C18.8258 6.784 19.1558 6.766 19.4678 6.73C19.7918 6.682 20.0858 6.616 20.3498 6.532V8.656C20.6618 7.84 21.0938 7.276 21.6458 6.964C22.2098 6.64 22.7978 6.478 23.4098 6.478ZM32.4761 6.478C33.5321 6.478 34.3541 6.802 34.9421 7.45C35.5421 8.086 35.8421 9.082 35.8421 10.438H29.4881L29.4701 10.096H34.1141C34.1381 9.508 34.0901 8.968 33.9701 8.476C33.8501 7.972 33.6581 7.57 33.3941 7.27C33.1421 6.97 32.8121 6.82 32.4041 6.82C31.8521 6.82 31.3601 7.096 30.9281 7.648C30.5081 8.2 30.2561 9.076 30.1721 10.276L30.2261 10.348C30.2021 10.528 30.1841 10.726 30.1721 10.942C30.1601 11.158 30.1541 11.374 30.1541 11.59C30.1541 12.406 30.2861 13.108 30.5501 13.696C30.8141 14.284 31.1561 14.734 31.5761 15.046C32.0081 15.346 32.4521 15.496 32.9081 15.496C33.2681 15.496 33.6101 15.442 33.9341 15.334C34.2581 15.214 34.5581 15.022 34.8341 14.758C35.1101 14.494 35.3501 14.14 35.5541 13.696L35.9141 13.84C35.7821 14.236 35.5661 14.62 35.2661 14.992C34.9661 15.364 34.5881 15.67 34.1321 15.91C33.6761 16.138 33.1481 16.252 32.5481 16.252C31.6841 16.252 30.9401 16.054 30.3161 15.658C29.7041 15.262 29.2301 14.716 28.8941 14.02C28.5701 13.312 28.4081 12.502 28.4081 11.59C28.4081 10.534 28.5761 9.628 28.9121 8.872C29.2481 8.104 29.7221 7.516 30.3341 7.108C30.9461 6.688 31.6601 6.478 32.4761 6.478ZM42.8055 6.478C43.1295 6.478 43.4115 6.544 43.6515 6.676C43.9035 6.808 44.0955 6.982 44.2275 7.198C44.3715 7.402 44.4435 7.636 44.4435 7.9C44.4435 8.2 44.3475 8.464 44.1555 8.692C43.9755 8.92 43.7295 9.034 43.4175 9.034C43.1655 9.034 42.9435 8.956 42.7515 8.8C42.5595 8.632 42.4635 8.398 42.4635 8.098C42.4635 7.87 42.5235 7.678 42.6435 7.522C42.7755 7.354 42.9195 7.222 43.0755 7.126C42.9915 7.006 42.8655 6.946 42.6975 6.946C42.3255 6.946 41.9835 7.06 41.6715 7.288C41.3595 7.504 41.0955 7.786 40.8795 8.134C40.6635 8.482 40.4955 8.854 40.3755 9.25C40.2555 9.634 40.1955 9.994 40.1955 10.33V14.146C40.1955 14.734 40.3635 15.13 40.6995 15.334C41.0475 15.526 41.5155 15.622 42.1035 15.622V16C41.8275 15.988 41.4375 15.976 40.9335 15.964C40.4295 15.94 39.8955 15.928 39.3315 15.928C38.9235 15.928 38.5155 15.94 38.1075 15.964C37.7115 15.976 37.4115 15.988 37.2075 16V15.622C37.6995 15.622 38.0475 15.532 38.2515 15.352C38.4675 15.172 38.5755 14.83 38.5755 14.326V8.692C38.5755 8.152 38.4795 7.756 38.2875 7.504C38.0955 7.24 37.7355 7.108 37.2075 7.108V6.73C37.5915 6.766 37.9635 6.784 38.3235 6.784C38.6715 6.784 39.0015 6.766 39.3135 6.73C39.6375 6.682 39.9315 6.616 40.1955 6.532V8.782C40.3275 8.434 40.5135 8.086 40.7535 7.738C41.0055 7.378 41.3055 7.078 41.6535 6.838C42.0015 6.598 42.3855 6.478 42.8055 6.478Z" fill="#261B11"/>
<path d="M48.0115 6.481C48.2605 6.481 48.493 6.5275 48.709 6.6205C48.925 6.7135 49.114 6.8425 49.276 7.0075C49.441 7.1695 49.57 7.3585 49.663 7.5745C49.756 7.7905 49.8025 8.023 49.8025 8.272C49.8025 8.518 49.756 8.7505 49.663 8.9695C49.57 9.1855 49.441 9.376 49.276 9.541C49.114 9.703 48.925 9.8305 48.709 9.9235C48.493 10.0165 48.2605 10.063 48.0115 10.063C47.7655 10.063 47.533 10.0165 47.314 9.9235C47.098 9.8305 46.9075 9.703 46.7425 9.541C46.5805 9.376 46.453 9.1855 46.36 8.9695C46.267 8.7505 46.2205 8.518 46.2205 8.272C46.2205 8.023 46.267 7.7905 46.36 7.5745C46.453 7.3585 46.5805 7.1695 46.7425 7.0075C46.9075 6.8425 47.098 6.7135 47.314 6.6205C47.533 6.5275 47.7655 6.481 48.0115 6.481ZM48.088 7.048C48.19 7.048 48.2875 7.0615 48.3805 7.0885C48.4765 7.1155 48.559 7.1545 48.628 7.2055C48.688 7.2445 48.7345 7.2925 48.7675 7.3495C48.8005 7.4065 48.817 7.4695 48.817 7.5385C48.817 7.6195 48.7945 7.6825 48.7495 7.7275C48.7045 7.7695 48.6475 7.7905 48.5785 7.7905C48.5125 7.7905 48.454 7.7695 48.403 7.7275C48.355 7.6825 48.331 7.6225 48.331 7.5475C48.331 7.4845 48.3475 7.4335 48.3805 7.3945C48.4165 7.3555 48.463 7.33 48.52 7.318C48.49 7.264 48.436 7.219 48.358 7.183C48.283 7.147 48.202 7.129 48.115 7.129C48.049 7.129 47.983 7.1425 47.917 7.1695C47.851 7.1965 47.788 7.2415 47.728 7.3045C47.68 7.3585 47.6365 7.4275 47.5975 7.5115C47.5585 7.5955 47.527 7.699 47.503 7.822C47.482 7.942 47.4715 8.083 47.4715 8.245C47.4715 8.503 47.5015 8.71 47.5615 8.866C47.6215 9.019 47.6995 9.13 47.7955 9.199C47.8945 9.265 48.001 9.298 48.115 9.298C48.196 9.298 48.2755 9.283 48.3535 9.253C48.4345 9.223 48.511 9.175 48.583 9.109C48.658 9.04 48.721 8.9485 48.772 8.8345L48.8575 8.866C48.8275 8.962 48.778 9.0595 48.709 9.1585C48.64 9.2545 48.55 9.334 48.439 9.397C48.328 9.46 48.193 9.4915 48.034 9.4915C47.848 9.4915 47.6785 9.4435 47.5255 9.3475C47.3755 9.2515 47.2555 9.115 47.1655 8.938C47.0785 8.758 47.035 8.545 47.035 8.299C47.035 8.053 47.0785 7.837 47.1655 7.651C47.2555 7.462 47.38 7.315 47.539 7.21C47.698 7.102 47.881 7.048 48.088 7.048ZM48.0115 6.625C47.7895 6.625 47.581 6.6685 47.386 6.7555C47.191 6.8395 47.02 6.958 46.873 7.111C46.726 7.261 46.6105 7.435 46.5265 7.633C46.4425 7.831 46.4005 8.044 46.4005 8.272C46.4005 8.5 46.4425 8.713 46.5265 8.911C46.6105 9.109 46.726 9.2845 46.873 9.4375C47.02 9.5875 47.191 9.706 47.386 9.793C47.581 9.877 47.7895 9.919 48.0115 9.919C48.2335 9.919 48.442 9.877 48.637 9.793C48.832 9.706 49.003 9.5875 49.15 9.4375C49.297 9.2845 49.4125 9.109 49.4965 8.911C49.5805 8.713 49.6225 8.5 49.6225 8.272C49.6225 8.044 49.5805 7.831 49.4965 7.633C49.4125 7.435 49.297 7.261 49.15 7.111C49.003 6.958 48.832 6.8395 48.637 6.7555C48.442 6.6685 48.2335 6.625 48.0115 6.625Z" fill="#261B11"/>
</g>
<defs>
<clipPath id="clip0_221_6">
<rect width="50" height="21" fill="white"/>
</clipPath>
</defs>
</svg>
