<svg width="48" height="48" viewBox="0 0 48 48" fill="none" xmlns="http://www.w3.org/2000/svg">
<path d="M14.8 42.2C14 42.2 13.4 41.9 12.9 41.4C12.4 40.9 12.1 40.2 12.1 39.4C12.1 38.6 12.4 37.9 12.9 37.4C13.4 36.9 14.1 36.6 14.8 36.6C15.6 36.6 16.3 36.9 16.8 37.4C17.3 37.9 17.6 38.6 17.6 39.4C17.6 40.2 17.3 40.9 16.8 41.4C16.2 41.9 15.6 42.2 14.8 42.2ZM33.5 42.2C32.7 42.2 32 41.9 31.5 41.4C31 40.9 30.7 40.2 30.7 39.4C30.7 38.6 31 37.9 31.5 37.4C32 36.9 32.7 36.6 33.5 36.6C34.3 36.6 34.9 36.9 35.5 37.4C36.1 37.9 36.3 38.6 36.3 39.4C36.3 40.2 36 40.9 35.5 41.4C35 41.9 34.4 42.2 33.5 42.2ZM11.5 10.6L17.1 22.4H30.6C30.8 22.4 31.1 22.3 31.2 22.2C31.4 22.1 31.6 21.9 31.7 21.7L37.3 11.6C37.4 11.3 37.4 11.1 37.3 10.9C37.2 10.7 37 10.6 36.6 10.6H11.5ZM10.7 9H36.7C37.7 9 38.4 9.3 38.8 10C39.2 10.7 39.2 11.4 38.7 12.2L33.2 22.3C32.9 22.8 32.6 23.1 32.1 23.4C31.6 23.7 31.1 23.9 30.6 23.9H16.2L13.5 28.9C13.3 29.2 13.3 29.5 13.5 29.9C13.7 30.3 14 30.4 14.3 30.4H36.3V32H14.6C13.5 32 12.7 31.6 12.2 30.8C11.7 30 11.7 29.1 12.2 28.2L15.4 22.3L7.80001 6.6H4.20001V5H8.80001L10.7 9ZM17.1 22.4H31.3H17.1Z" fill="#231F1C"/>
</svg>
